<svg width="22" height="15" viewBox="0 0 22 15" fill="none" xmlns="http://www.w3.org/2000/svg">
<path fill-rule="evenodd" clip-rule="evenodd" d="M0.499636 7.70041C0.499636 7.89932 0.578653 8.09009 0.719305 8.23074C0.859959 8.37139 1.05072 8.45041 1.24964 8.45041L18.9391 8.45041L14.2186 13.1694C14.0778 13.3102 13.9987 13.5012 13.9987 13.7004C13.9987 13.8996 14.0778 14.0906 14.2186 14.2314C14.3595 14.3722 14.5505 14.4514 14.7496 14.4514C14.9488 14.4514 15.1398 14.3722 15.2806 14.2314L21.2806 8.23141C21.3505 8.16174 21.4059 8.07898 21.4437 7.98786C21.4815 7.89674 21.501 7.79906 21.501 7.70041C21.501 7.60176 21.4815 7.50408 21.4437 7.41296C21.4059 7.32184 21.3505 7.23908 21.2806 7.16941L15.2806 1.16941C15.2109 1.09968 15.1281 1.04436 15.037 1.00663C14.9459 0.968887 14.8483 0.949463 14.7496 0.949463C14.5505 0.949463 14.3595 1.02858 14.2186 1.16941C14.0778 1.31024 13.9987 1.50125 13.9987 1.70041C13.9987 1.89957 14.0778 2.09058 14.2186 2.23141L18.9391 6.95041L1.24964 6.95041C1.05072 6.95041 0.859959 7.02943 0.719305 7.17008C0.578653 7.31073 0.499636 7.5015 0.499636 7.70041Z" fill="black"/>
</svg>
